HIERARCHY
ROOT mixamorig:Hips
{
	OFFSET -0.000008 104.274872 1.554316
	CHANNELS 6 Xposition Yposition Zposition Xrotation Yrotation Zrotation
	JOINT mixamorig:Spine
	{
		OFFSET -0.000005 10.181587 0.131521
		CHANNELS 6 Xposition Yposition Zposition Xrotation Yrotation Zrotation
		JOINT mixamorig:Spine1
		{
			OFFSET -0.000000 9.893967 -1.470711
			CHANNELS 3 Xrotation Yrotation Zrotation
			JOINT mixamorig:Spine2
			{
				OFFSET -0.000000 9.220772 -1.370643
				CHANNELS 3 Xrotation Yrotation Zrotation
				JOINT mixamorig:Neck
				{
					OFFSET 0.000001 16.740387 -2.049035
					CHANNELS 6 Xposition Yposition Zposition Xrotation Yrotation Zrotation
					JOINT mixamorig:Head
					{
						OFFSET 0.000000 9.617889 1.685008
						CHANNELS 6 Xposition Yposition Zposition Xrotation Yrotation Zrotation
						JOINT mixamorig:HeadTop_End
						{
							OFFSET 0.000002 22.037369 7.501095
							CHANNELS 6 Xposition Yposition Zposition Xrotation Yrotation Zrotation
							End Site
							{
								OFFSET 0.000002 23.106552 -2.828258
							}
						}
					}
				}
				JOINT mixamorig:RightShoulder
				{
					OFFSET -4.569969 11.014908 -2.160884
					CHANNELS 6 Xposition Yposition Zposition Xrotation Yrotation Zrotation
					JOINT mixamorig:RightArm
					{
						OFFSET -10.592846 -0.524811 -2.232097
						CHANNELS 3 Xrotation Yrotation Zrotation
						JOINT mixamorig:RightForeArm
						{
							OFFSET -27.841518 0.000000 -0.000004
							CHANNELS 3 Xrotation Yrotation Zrotation
							JOINT mixamorig:RightHand
							{
								OFFSET -28.328838 0.000000 0.000019
								CHANNELS 3 Xrotation Yrotation Zrotation
								JOINT mixamorig:RightHandThumb1
								{
									OFFSET -2.464806 -1.573990 2.681852
									CHANNELS 6 Xposition Yposition Zposition Xrotation Yrotation Zrotation
									JOINT mixamorig:RightHandThumb2
									{
										OFFSET -3.215187 -1.872772 1.924281
										CHANNELS 3 Xrotation Yrotation Zrotation
										JOINT mixamorig:RightHandThumb3
										{
											OFFSET -2.654839 -1.527985 1.512611
											CHANNELS 3 Xrotation Yrotation Zrotation
											JOINT mixamorig:RightHandThumb4
											{
												OFFSET -2.018822 -1.152008 1.108052
												CHANNELS 3 Xrotation Yrotation Zrotation
												End Site
												{
													OFFSET -1.888100 -1.145340 1.324313
												}
											}
										}
									}
								}
								JOINT mixamorig:RightHandIndex1
								{
									OFFSET -9.108284 -0.517868 2.259834
									CHANNELS 6 Xposition Yposition Zposition Xrotation Yrotation Zrotation
									JOINT mixamorig:RightHandIndex2
									{
										OFFSET -3.699997 0.000015 0.001215
										CHANNELS 3 Xrotation Yrotation Zrotation
										JOINT mixamorig:RightHandIndex3
										{
											OFFSET -2.850006 0.000000 -0.000521
											CHANNELS 3 Xrotation Yrotation Zrotation
											JOINT mixamorig:RightHandIndex4
											{
												OFFSET -2.772186 0.000000 -0.000020
												CHANNELS 3 Xrotation Yrotation Zrotation
												End Site
												{
													OFFSET -2.772186 0.000000 -0.000502
												}
											}
										}
									}
								}
								JOINT mixamorig:RightHandMiddle1
								{
									OFFSET -9.532501 -0.000046 -0.000025
									CHANNELS 6 Xposition Yposition Zposition Xrotation Yrotation Zrotation
									JOINT mixamorig:RightHandMiddle2
									{
										OFFSET -3.699997 0.000015 0.003713
										CHANNELS 3 Xrotation Yrotation Zrotation
										JOINT mixamorig:RightHandMiddle3
										{
											OFFSET -2.949997 0.000000 -0.002054
											CHANNELS 3 Xrotation Yrotation Zrotation
											JOINT mixamorig:RightHandMiddle4
											{
												OFFSET -2.946632 0.000015 -0.000155
												CHANNELS 3 Xrotation Yrotation Zrotation
												End Site
												{
													OFFSET -2.946625 0.000000 -0.001135
												}
											}
										}
									}
								}
								JOINT mixamorig:RightHandRing1
								{
									OFFSET -9.103592 -0.043076 -1.865134
									CHANNELS 6 Xposition Yposition Zposition Xrotation Yrotation Zrotation
									JOINT mixamorig:RightHandRing2
									{
										OFFSET -3.379272 0.000000 -0.001054
										CHANNELS 3 Xrotation Yrotation Zrotation
										JOINT mixamorig:RightHandRing3
										{
											OFFSET -2.889687 0.000000 0.000379
											CHANNELS 3 Xrotation Yrotation Zrotation
											JOINT mixamorig:RightHandRing4
											{
												OFFSET -2.638817 0.000000 0.000942
												CHANNELS 3 Xrotation Yrotation Zrotation
												End Site
												{
													OFFSET -2.638802 0.000000 0.005160
												}
											}
										}
									}
								}
								JOINT mixamorig:RightHandPinky1
								{
									OFFSET -8.076675 -0.486710 -3.806279
									CHANNELS 6 Xposition Yposition Zposition Xrotation Yrotation Zrotation
									JOINT mixamorig:RightHandPinky2
									{
										OFFSET -3.599998 -0.000031 -0.003747
										CHANNELS 3 Xrotation Yrotation Zrotation
										JOINT mixamorig:RightHandPinky3
										{
											OFFSET -2.099991 -0.000015 -0.005740
											CHANNELS 3 Xrotation Yrotation Zrotation
											JOINT mixamorig:RightHandPinky4
											{
												OFFSET -2.115776 -0.000015 -0.003680
												CHANNELS 3 Xrotation Yrotation Zrotation
												End Site
												{
													OFFSET -2.115784 -0.000015 -0.003507
												}
											}
										}
									}
								}
							}
						}
					}
				}
				JOINT mixamorig:LeftShoulder
				{
					OFFSET 4.570447 11.014709 -2.160855
					CHANNELS 6 Xposition Yposition Zposition Xrotation Yrotation Zrotation
					JOINT mixamorig:LeftArm
					{
						OFFSET 10.592369 -0.524597 -2.232120
						CHANNELS 3 Xrotation Yrotation Zrotation
						JOINT mixamorig:LeftForeArm
						{
							OFFSET 27.841522 -0.000031 0.000023
							CHANNELS 3 Xrotation Yrotation Zrotation
							JOINT mixamorig:LeftHand
							{
								OFFSET 28.328835 -0.000031 0.000018
								CHANNELS 3 Xrotation Yrotation Zrotation
								JOINT mixamorig:LeftHandThumb1
								{
									OFFSET 2.466141 -1.576187 2.681734
									CHANNELS 6 Xposition Yposition Zposition Xrotation Yrotation Zrotation
									JOINT mixamorig:LeftHandThumb2
									{
										OFFSET 3.217804 -1.872055 1.916487
										CHANNELS 3 Xrotation Yrotation Zrotation
										JOINT mixamorig:LeftHandThumb3
										{
											OFFSET 2.656013 -1.528809 1.514505
											CHANNELS 3 Xrotation Yrotation Zrotation
											JOINT mixamorig:LeftHandThumb4
											{
												OFFSET 2.020889 -1.154068 1.115134
												CHANNELS 3 Xrotation Yrotation Zrotation
												End Site
												{
													OFFSET 1.908852 -1.150833 1.300489
												}
											}
										}
									}
								}
								JOINT mixamorig:LeftHandIndex1
								{
									OFFSET 9.109306 -0.518036 2.259871
									CHANNELS 6 Xposition Yposition Zposition Xrotation Yrotation Zrotation
									JOINT mixamorig:LeftHandIndex2
									{
										OFFSET 3.699997 -0.000015 -0.000323
										CHANNELS 3 Xrotation Yrotation Zrotation
										JOINT mixamorig:LeftHandIndex3
										{
											OFFSET 2.850006 -0.000015 0.000350
											CHANNELS 3 Xrotation Yrotation Zrotation
											JOINT mixamorig:LeftHandIndex4
											{
												OFFSET 2.774864 0.000000 -0.000027
												CHANNELS 3 Xrotation Yrotation Zrotation
												End Site
												{
													OFFSET 2.774872 -0.000015 -0.000099
												}
											}
										}
									}
								}
								JOINT mixamorig:LeftHandMiddle1
								{
									OFFSET 9.533401 0.000031 0.000044
									CHANNELS 6 Xposition Yposition Zposition Xrotation Yrotation Zrotation
									JOINT mixamorig:LeftHandMiddle2
									{
										OFFSET 3.699997 -0.000015 -0.000231
										CHANNELS 3 Xrotation Yrotation Zrotation
										JOINT mixamorig:LeftHandMiddle3
										{
											OFFSET 2.950005 0.000000 -0.000060
											CHANNELS 3 Xrotation Yrotation Zrotation
											JOINT mixamorig:LeftHandMiddle4
											{
												OFFSET 2.952858 0.000000 0.000063
												CHANNELS 3 Xrotation Yrotation Zrotation
												End Site
												{
													OFFSET 2.952866 0.000000 0.000228
												}
											}
										}
									}
								}
								JOINT mixamorig:LeftHandRing1
								{
									OFFSET 9.104530 -0.043030 -1.865074
									CHANNELS 6 Xposition Yposition Zposition Xrotation Yrotation Zrotation
									JOINT mixamorig:LeftHandRing2
									{
										OFFSET 3.150002 -0.000015 0.000042
										CHANNELS 3 Xrotation Yrotation Zrotation
										JOINT mixamorig:LeftHandRing3
										{
											OFFSET 2.949997 0.000000 0.000037
											CHANNELS 3 Xrotation Yrotation Zrotation
											JOINT mixamorig:LeftHandRing4
											{
												OFFSET 2.644318 -0.000015 0.000059
												CHANNELS 3 Xrotation Yrotation Zrotation
												End Site
												{
													OFFSET 2.644318 0.000000 0.000121
												}
											}
										}
									}
								}
								JOINT mixamorig:LeftHandPinky1
								{
									OFFSET 8.077782 -0.486877 -3.806256
									CHANNELS 6 Xposition Yposition Zposition Xrotation Yrotation Zrotation
									JOINT mixamorig:LeftHandPinky2
									{
										OFFSET 3.599968 0.000031 0.014726
										CHANNELS 3 Xrotation Yrotation Zrotation
										JOINT mixamorig:LeftHandPinky3
										{
											OFFSET 2.099991 0.000015 0.007705
											CHANNELS 3 Xrotation Yrotation Zrotation
											JOINT mixamorig:LeftHandPinky4
											{
												OFFSET 2.125511 0.000015 0.007514
												CHANNELS 3 Xrotation Yrotation Zrotation
												End Site
												{
													OFFSET 2.125526 0.000015 0.006258
												}
											}
										}
									}
								}
							}
						}
					}
				}
			}
		}
	}
	JOINT mixamorig:RightUpLeg
	{
		OFFSET -8.207787 -6.751671 -1.599560
		CHANNELS 6 Xposition Yposition Zposition Xrotation Yrotation Zrotation
		JOINT mixamorig:RightLeg
		{
			OFFSET -0.000001 -44.370113 0.345939
			CHANNELS 3 Xrotation Yrotation Zrotation
			JOINT mixamorig:RightFoot
			{
				OFFSET 0.000001 -44.423676 -3.043536
				CHANNELS 3 Xrotation Yrotation Zrotation
				JOINT mixamorig:RightToeBase
				{
					OFFSET -0.000003 -8.728670 10.710561
					CHANNELS 3 Xrotation Yrotation Zrotation
					JOINT mixamorig:RightToe_End
					{
						OFFSET -0.000003 -0.000677 9.278120
						CHANNELS 3 Xrotation Yrotation Zrotation
						End Site
						{
							OFFSET -0.000003 -0.000677 9.278120
						}
					}
				}
			}
		}
	}
	JOINT mixamorig:LeftUpLeg
	{
		OFFSET 8.207791 -6.751701 -1.599555
		CHANNELS 6 Xposition Yposition Zposition Xrotation Yrotation Zrotation
		JOINT mixamorig:LeftLeg
		{
			OFFSET -0.000002 -44.370033 0.346958
			CHANNELS 3 Xrotation Yrotation Zrotation
			JOINT mixamorig:LeftFoot
			{
				OFFSET 0.000000 -44.423653 -3.044392
				CHANNELS 3 Xrotation Yrotation Zrotation
				JOINT mixamorig:LeftToeBase
				{
					OFFSET -0.000003 -8.728668 10.710560
					CHANNELS 3 Xrotation Yrotation Zrotation
					JOINT mixamorig:LeftToe_End
					{
						OFFSET -0.000003 -0.000677 9.278137
						CHANNELS 3 Xrotation Yrotation Zrotation
						End Site
						{
							OFFSET -0.000003 -0.000677 9.278137
						}
					}
				}
			}
		}
	}
}
MOTION
Frames: 4
Frame Time: 0.033333
0.228440 100.185196 1.714991 3.584458 7.629388 0.713058 -0.000005 10.181588 0.131521 6.698472 -1.793380 1.334885 14.763321 -0.469873 0.325388 14.763384 -0.467466 0.332251 0.000001 16.740379 -2.049034 3.150057 -0.746996 0.591272 0.000002 9.617876 1.685006 21.377032 -3.681084 3.222589 0.000002 22.037369 7.501107 -0.000003 -0.000000 -0.000000 -4.569977 11.014931 -2.160896 0.379708 5.889998 19.441117 -27.701900 20.491210 57.509667 -0.000001 9.133557 -0.000023 1.687166 7.211662 2.389598 -2.464796 -1.573969 2.681846 -6.312581 0.891000 -14.405376 17.257458 -19.847502 7.584083 -18.283341 15.145033 -9.717684 0.000001 -0.000006 0.000002 -9.108278 -0.517867 2.259836 -1.306276 2.998117 14.433341 0.612222 -2.291371 29.810569 0.424654 -1.955286 24.637519 0.000002 -0.000001 -0.000002 -9.532518 -0.000047 -0.000024 -1.166185 0.800611 17.866211 1.015992 -2.848539 39.030074 0.322960 -1.745658 21.477854 0.000001 0.000002 0.000001 -9.103583 -0.043066 -1.865131 -0.104340 -2.386205 15.770002 1.483453 -3.428097 46.915996 0.286695 -1.602986 19.937997 -0.000001 -0.000000 0.000004 -8.076680 -0.486716 -3.806282 -12.826974 -10.970365 13.053984 0.904296 -2.823771 38.243206 0.210772 -1.546759 18.550357 -0.000001 0.000001 0.000002 4.570448 11.014715 -2.160867 -0.208561 -10.774866 -22.016071 -27.297488 -20.840727 -57.153664 -0.000026 -21.437493 -0.000003 10.594263 -3.970821 8.211884 2.466138 -1.576206 2.681738 -0.115999 5.210902 10.930949 13.749393 5.316510 10.737527 -1.578579 -27.329378 15.304121 -0.000002 0.000002 -0.000001 9.109319 -0.518055 2.259870 0.208323 3.646169 -14.856679 0.533554 2.449650 -24.552674 0.191454 1.479916 -14.678766 -0.000003 -0.000006 -0.000004 9.533422 0.000029 0.000046 1.302280 7.384256 -16.322238 0.454333 2.267564 -22.704339 0.408371 2.152048 -21.487813 -0.000001 -0.000005 -0.000001 9.104539 -0.043034 -1.865074 1.739895 8.580741 -17.229109 1.308592 3.691109 -39.016749 0.357070 2.015106 -20.081147 0.000002 -0.000000 0.000005 8.077803 -0.486877 -3.806259 0.845415 5.393134 -23.687977 0.813397 2.753362 -28.541469 0.233655 1.442015 -14.361999 0.000002 -0.000003 -0.000000 -8.207787 -6.751670 -1.599566 -21.721923 -8.834469 -3.569426 33.190269 -9.574416 0.990661 -15.205902 -5.612198 1.074093 -0.000591 0.000002 -0.000001 -0.000000 0.000001 -0.000000 8.207791 -6.751700 -1.599559 -29.146944 2.985589 1.440178 53.815057 5.756803 1.152079 -2.440859 0.496740 -7.212434 -3.001938 0.000008 -0.000008 0.000001 -0.000001 -0.000000 
0.130940 100.448807 4.101856 3.943632 8.034364 1.190539 -0.000005 10.181600 0.131521 6.598707 -1.234455 0.877660 14.763322 -0.340060 0.186761 14.763379 -0.337754 0.191238 0.000000 16.740377 -2.049037 3.104398 -0.773134 0.524216 0.000000 9.617887 1.685006 21.133433 -3.840452 3.099399 0.000002 22.037354 7.501113 0.000005 -0.000000 0.000000 -4.569977 11.014912 -2.160888 0.365667 6.108196 19.237469 -27.560117 21.429606 57.033548 0.000008 9.746373 -0.000003 0.956921 7.609118 2.749922 -2.464808 -1.573968 2.681845 -6.312583 0.891003 -14.405373 17.233517 -19.794149 7.552144 -18.276000 15.405458 -9.847622 0.000003 -0.000005 0.000007 -9.108281 -0.517876 2.259834 -1.303095 3.014477 14.372665 0.612214 -2.291374 29.810538 0.424274 -1.954454 24.626406 0.000001 0.000003 -0.000001 -9.532505 -0.000045 -0.000023 -1.177069 0.843842 17.835248 1.015972 -2.848533 39.030071 0.322588 -1.744717 21.465311 -0.000001 -0.000000 -0.000002 -9.103595 -0.043070 -1.865131 -0.111864 -2.355050 15.714898 1.483474 -3.428097 46.916006 0.286486 -1.602407 19.930569 0.000000 -0.000005 -0.000001 -8.076672 -0.486708 -3.806285 -12.829569 -10.960528 13.050594 0.901943 -2.820579 38.194630 0.210790 -1.546766 18.550365 -0.000001 0.000008 -0.000001 4.570451 11.014724 -2.160859 -0.199435 -10.613883 -22.154154 -26.790232 -21.501811 -56.172026 -0.000047 -22.172710 -0.000008 11.638649 -4.686714 8.482538 2.466131 -1.576213 2.681742 -0.115996 5.210886 10.930943 13.763413 5.345974 10.726414 -1.555460 -27.371181 15.350051 0.000002 -0.000002 0.000002 9.109306 -0.518042 2.259874 0.206672 3.641248 -14.936970 0.531550 2.445275 -24.505590 0.191276 1.479201 -14.671550 -0.000001 0.000003 0.000002 9.533408 0.000028 0.000048 1.295656 7.350724 -16.376611 0.454329 2.267571 -22.704345 0.408577 2.152579 -21.493379 0.000000 -0.000002 -0.000008 9.104537 -0.043037 -1.865070 1.739449 8.565488 -17.281135 1.308962 3.691564 -39.022510 0.356494 2.013512 -20.064538 0.000000 -0.000001 -0.000004 8.077800 -0.486877 -3.806255 0.839599 5.378535 -23.733731 0.813390 2.753361 -28.541489 0.234007 1.443197 -14.373925 -0.000001 -0.000005 -0.000001 -8.207786 -6.751652 -1.599563 -20.024562 -8.950352 -3.739882 32.145633 -9.515551 0.833329 -16.248436 -6.126005 1.316329 -0.000590 0.000009 0.000002 -0.000000 -0.000001 -0.000000 8.207792 -6.751681 -1.599554 -30.809740 2.906715 0.160971 46.948975 6.289397 0.991613 -2.380173 0.454169 -6.590988 -3.411152 0.000002 -0.000001 -0.000001 0.000001 -0.000000 
0.128742 100.698303 6.519054 4.345350 8.365707 1.504787 -0.000005 10.181592 0.131522 6.523380 -0.767927 0.525209 14.763326 -0.227230 0.077587 14.763370 -0.224794 0.079830 0.000001 16.740400 -2.049046 3.088165 -0.795640 0.456681 0.000001 9.617867 1.684997 21.000258 -3.977387 2.933070 0.000002 22.037354 7.501097 -0.000006 -0.000000 0.000000 -4.569978 11.014905 -2.160893 0.355162 6.283798 19.073474 -27.250935 22.398984 56.518077 0.000006 10.575723 -0.000013 0.703522 7.975801 3.048146 -2.464819 -1.573968 2.681846 -6.312582 0.891003 -14.405371 17.190399 -19.696900 7.495497 -18.265066 15.780662 -10.034430 -0.000001 -0.000003 -0.000001 -9.108294 -0.517867 2.259836 -1.296182 3.054107 14.232614 0.612203 -2.291367 29.810545 0.423791 -1.953403 24.612179 0.000003 -0.000000 -0.000004 -9.532516 -0.000042 -0.000022 -1.174031 0.865708 17.721739 1.014681 -2.846898 39.004444 0.322677 -1.744952 21.468509 -0.000001 0.000008 0.000005 -9.103586 -0.043069 -1.865128 -0.110202 -2.356059 15.652449 1.482834 -3.427517 46.905436 0.286220 -1.601700 19.921278 0.000000 -0.000001 -0.000002 -8.076690 -0.486697 -3.806281 -12.828866 -10.967588 12.985582 0.900796 -2.819006 38.170560 0.210790 -1.546764 18.550370 -0.000000 0.000007 -0.000008 4.570452 11.014705 -2.160854 -0.175536 -10.380120 -22.183688 -26.185135 -21.719030 -55.450863 -0.000027 -22.797363 -0.000004 11.810797 -5.265771 8.945532 2.466118 -1.576215 2.681737 -0.115996 5.210892 10.930947 13.773625 5.373340 10.711637 -1.495155 -27.485474 15.474994 0.000003 0.000002 -0.000010 9.109302 -0.518046 2.259870 0.202405 3.631146 -15.269737 0.531299 2.444765 -24.499979 0.189056 1.470676 -14.585449 -0.000002 0.000004 0.000009 9.533426 0.000025 0.000041 1.288454 7.274637 -16.631424 0.455954 2.271420 -22.745221 0.408845 2.153272 -21.500633 0.000000 0.000001 0.000001 9.104535 -0.043038 -1.865076 1.748015 8.523171 -17.543107 1.317534 3.702121 -39.155692 0.355090 2.009679 -20.024592 0.000002 0.000003 0.000004 8.077790 -0.486874 -3.806260 0.817684 5.324052 -23.908713 0.813379 2.753364 -28.541465 0.234506 1.444886 -14.391086 0.000001 0.000004 0.000002 -8.207786 -6.751667 -1.599563 -18.156774 -9.114977 -3.804373 30.758688 -9.514789 0.735882 -17.117806 -6.531360 1.575445 -0.000586 0.000009 0.000001 -0.000000 -0.000001 -0.000000 8.207791 -6.751697 -1.599555 -31.606328 2.912209 -0.886040 38.239149 7.686127 0.995811 -1.232299 0.344321 -5.756846 -0.944912 -0.000002 0.000002 -0.000000 -0.000000 -0.000000 
0.213019 100.875801 8.959441 4.856653 8.459858 1.703220 -0.000005 10.181590 0.131522 6.257870 -0.335774 0.231616 14.772545 -0.104064 0.013564 14.772598 -0.101612 0.013911 0.000002 16.740408 -2.049038 3.108276 -0.815423 0.400051 0.000001 9.617879 1.685008 21.028780 -4.076424 2.757683 0.000002 22.037369 7.501085 -0.000003 -0.000000 0.000000 -4.569978 11.014885 -2.160879 0.348708 6.399171 18.956627 -26.679139 23.263409 55.928024 0.000009 12.244252 -0.000002 0.783174 8.029748 3.236798 -2.464804 -1.573968 2.681845 -6.312585 0.891005 -14.405376 17.149502 -19.603480 7.442335 -18.251954 16.127487 -10.207343 0.000002 -0.000007 0.000001 -9.108290 -0.517864 2.259837 -1.285312 3.081237 14.086077 0.612219 -2.291374 29.810531 0.423675 -1.953161 24.608856 -0.000001 0.000003 0.000002 -9.532512 -0.000063 -0.000022 -1.162158 0.870619 17.568037 1.013223 -2.845066 38.975453 0.322904 -1.745519 21.476133 -0.000000 -0.000006 0.000009 -9.103593 -0.043068 -1.865129 -0.101358 -2.381884 15.577670 1.480939 -3.425759 46.873611 0.286254 -1.601814 19.922484 0.000001 -0.000003 -0.000006 -8.076681 -0.486712 -3.806273 -12.821798 -10.990538 12.904688 0.900577 -2.818739 38.166479 0.210794 -1.546777 18.550369 -0.000000 0.000001 -0.000004 4.570448 11.014709 -2.160859 -0.140869 -10.083196 -22.145611 -25.436839 -21.356752 -55.034205 -0.000020 -23.913700 -0.000006 11.138912 -5.413853 9.265742 2.466127 -1.576204 2.681732 -0.115995 5.210894 10.930942 13.786795 5.409694 10.691964 -1.409758 -27.656725 15.662411 0.000002 0.000006 -0.000008 9.109308 -0.518053 2.259866 0.199959 3.630559 -15.684037 0.531882 2.445989 -24.513252 0.185671 1.457660 -14.454193 -0.000001 0.000001 0.000004 9.533415 0.000025 0.000041 1.282085 7.192637 -16.944980 0.457878 2.276023 -22.793900 0.409105 2.153919 -21.507559 0.000004 -0.000003 -0.000011 9.104542 -0.043036 -1.865077 1.759652 8.472593 -17.881259 1.327395 3.714141 -39.307793 0.353201 2.004534 -19.971195 -0.000000 -0.000003 0.000004 8.077803 -0.486876 -3.806263 0.790348 5.266091 -24.131096 0.813371 2.753373 -28.541465 0.234967 1.446432 -14.406879 0.000002 0.000002 -0.000001 -8.207785 -6.751668 -1.599562 -16.339609 -9.260178 -3.847205 29.277425 -9.524181 0.719392 -17.912224 -6.679712 1.865767 -0.000585 0.000011 -0.000000 -0.000000 -0.000001 -0.000000 8.207792 -6.751695 -1.599560 -31.103302 3.042401 -1.717945 26.988173 9.038046 1.044338 0.850656 0.221890 -5.128873 2.002960 -0.000014 0.000001 -0.000000 -0.000000 -0.000000 
